name C:\Users\u0150099\Documents\master_thesis\3dpredictsim\Results\debug\Fal_s1_mtp_sc_Sv50_MTPp_k17_d05_ig21.mot
datacolumns 126
datarows 4
range 1.11274653 1.14612893
endheader
time	pelvis_tilt	pelvis_list	pelvis_rotation	pelvis_tx	pelvis_ty	pelvis_tz	hip_flexion_l	hip_adduction_l	hip_rotation_l	hip_flexion_r	hip_adduction_r	hip_rotation_r	knee_angle_l	knee_angle_r	ankle_angle_l	ankle_angle_r	subtalar_angle_l	subtalar_angle_r	mtp_angle_l	mtp_angle_r	lumbar_extension	lumbar_bending	lumbar_rotation	arm_flex_l	arm_add_l	arm_rot_l	arm_flex_r	arm_add_r	arm_rot_r	elbow_flex_l	elbow_flex_r	pro_sup_l	pro_sup_r	glut_med1_l/activation	glut_med2_l/activation	glut_med3_l/activation	glut_min1_l/activation	glut_min2_l/activation	glut_min3_l/activation	semimem_l/activation	semiten_l/activation	bifemlh_l/activation	bifemsh_l/activation	sar_l/activation	add_long_l/activation	add_brev_l/activation	add_mag1_l/activation	add_mag2_l/activation	add_mag3_l/activation	tfl_l/activation	pect_l/activation	grac_l/activation	glut_max1_l/activation	glut_max2_l/activation	glut_max3_l/activation	iliacus_l/activation	psoas_l/activation	quad_fem_l/activation	gem_l/activation	peri_l/activation	rect_fem_l/activation	vas_med_l/activation	vas_int_l/activation	vas_lat_l/activation	med_gas_l/activation	lat_gas_l/activation	soleus_l/activation	tib_post_l/activation	flex_dig_l/activation	flex_hal_l/activation	tib_ant_l/activation	per_brev_l/activation	per_long_l/activation	per_tert_l/activation	ext_dig_l/activation	ext_hal_l/activation	ercspn_l/activation	intobl_l/activation	extobl_l/activation	glut_med1_r/activation	glut_med2_r/activation	glut_med3_r/activation	glut_min1_r/activation	glut_min2_r/activation	glut_min3_r/activation	semimem_r/activation	semiten_r/activation	bifemlh_r/activation	bifemsh_r/activation	sar_r/activation	add_long_r/activation	add_brev_r/activation	add_mag1_r/activation	add_mag2_r/activation	add_mag3_r/activation	tfl_r/activation	pect_r/activation	grac_r/activation	glut_max1_r/activation	glut_max2_r/activation	glut_max3_r/activation	iliacus_r/activation	psoas_r/activation	quad_fem_r/activation	gem_r/activation	peri_r/activation	rect_fem_r/activation	vas_med_r/activation	vas_int_r/activation	vas_lat_r/activation	med_gas_r/activation	lat_gas_r/activation	soleus_r/activation	tib_post_r/activation	flex_dig_r/activation	flex_hal_r/activation	tib_ant_r/activation	per_brev_r/activation	per_long_r/activation	per_tert_r/activation	ext_dig_r/activation	ext_hal_r/activation	ercspn_r/activation	intobl_r/activation	extobl_r/activation	
          1.11274653	         -2.92994737	         -2.40984030	          5.98877576	          1.47995289	          0.90926903	         -0.00516416	        -18.34347783	         -1.39980213	          8.43202324	         30.62779513	          2.83493622	         -3.45148804	         -5.04501775	        -10.16314959	          2.27385648	          7.35671352	         10.81177660	         -2.96210638	         22.47392115	         -0.20271671	         -3.74960356	          1.15037220	         -2.18992074	         10.16483944	        -13.62003759	         19.37712019	         -9.73935151	        -13.55023016	          5.95835065	         39.85393193	         17.04884577	         86.51662706	         86.51662706	          0.24960763	          0.11705769	          0.08329777	          0.36948700	          0.26443149	          0.15111790	          0.05000085	          0.05000021	          0.05000015	          0.08446487	          0.13805680	          0.05000054	          0.05000012	          0.05000018	          0.05000046	          0.05000042	          0.63336804	          0.05000129	          0.05000032	          0.05000303	          0.05000116	          0.05000056	          0.50195989	          0.77093284	          0.05000008	          0.05000059	          0.06284288	          0.38828146	          0.05000049	          0.05000047	          0.05000046	          0.32195936	          0.43701707	          0.32959877	          0.32636688	          0.50135481	          0.53444856	          0.05875402	          0.05171691	          0.06747572	          0.05000019	          0.05000005	          0.05000016	          0.05000001	          0.05000001	          0.05000002	          0.06302260	          0.05000077	          0.05000012	          0.05000032	          0.05000043	          0.05000348	          0.26594853	          0.07922050	          0.34959997	          0.05927311	          0.05000951	          0.13524047	          0.12580751	          0.14460333	          0.14153094	          0.13909119	          0.05000214	          0.05017510	          0.14098297	          0.05927289	          0.05927340	          0.09319201	          0.05011111	          0.05000039	          0.17229047	          0.05000057	          0.05000087	          0.05000007	          0.05000045	          0.05000043	          0.05000028	          0.05000182	          0.05000295	          0.05927285	          0.05649109	          0.05000155	          0.05065396	          0.41470159	          0.32057142	          0.16795253	          0.19920745	          0.37010314	          0.17270208	          0.08085415	          0.08260094	          0.09996527	
          1.12387400	         -2.92960672	         -2.57904061	          6.36031039	          1.49760964	          0.90802255	         -0.00482661	        -18.18787860	         -1.80145812	          8.32017367	         30.18459499	          3.28779623	         -3.34737582	         -7.10127489	        -10.05039583	          1.51249377	          7.00327219	         11.81536474	         -3.28589537	         23.60473096	         -0.11756260	         -3.57732102	          1.40017225	         -2.33915376	          9.97226724	        -13.56353229	         19.37543590	        -10.82628954	        -13.49598235	          5.72738429	         41.33249710	         16.73785186	         86.51662706	         86.51662706	          0.21055810	          0.09874474	          0.07026636	          0.31168309	          0.22306283	          0.12747644	          0.05000061	          0.05000014	          0.05000010	          0.07125087	          0.11645877	          0.13824466	          0.13235807	          0.05000072	          0.05000197	          0.05000041	          0.58060964	          0.14004185	          0.05001508	          0.05000283	          0.05000127	          0.05000077	          0.42343139	          0.73762286	          0.05001515	          0.05000157	          0.05301157	          0.37716653	          0.07085144	          0.07214644	          0.05060886	          0.27159076	          0.36864842	          0.27803504	          0.31336999	          0.49947194	          0.53081968	          0.05000001	          0.05000023	          0.05691966	          0.05000009	          0.05000002	          0.05000015	          0.05029084	          0.05000004	          0.05000002	          0.05927278	          0.05000461	          0.29961679	          0.05927290	          0.05927287	          0.05000166	          0.24295537	          0.06682704	          0.31495278	          0.05000037	          0.05000048	          0.18244982	          0.34620241	          0.21559095	          0.20746921	          0.15608623	          0.05000010	          0.09692661	          0.11893148	          0.05000027	          0.05000054	          0.21577046	          0.05927289	          0.05406655	          0.14533688	          0.25030055	          0.11340854	          0.05000244	          0.09322566	          0.10109867	          0.08329917	          0.05000001	          0.05000005	          0.05000000	          0.05000002	          0.05000036	          0.05000014	          0.51212573	          0.27042089	          0.14167751	          0.47135322	          0.43410481	          0.28797089	          0.06820501	          0.06967852	          0.08432631	
          1.13500146	         -2.92481419	         -2.74362754	          6.70456829	          1.51561692	          0.90683043	         -0.00446584	        -17.94024110	         -2.19448658	          8.18851672	         29.69332619	          3.70741565	         -3.19817324	         -9.30441095	        -10.61653170	          0.52235211	          6.38243853	         12.81213676	         -3.58676562	         24.60024060	         -0.05126929	         -3.38020586	          1.64570986	         -2.47819123	          9.66217675	        -13.51097012	         19.29878231	        -11.93200953	        -13.46220932	          5.81837403	         42.82738382	         16.47149563	         86.51662706	         86.51662706	          0.17761759	          0.08329674	          0.05927363	          0.26292226	          0.18816604	          0.10753355	          0.05000619	          0.05000064	          0.05000084	          0.06010411	          0.09823958	          0.22701653	          0.17462456	          0.21505149	          0.05928438	          0.05928051	          0.48978224	          0.11813363	          0.05000142	          0.05001309	          0.05001785	          0.05927239	          0.35718813	          0.68945516	          0.05000246	          0.05927284	          0.05927262	          0.32604647	          0.16450238	          0.16450241	          0.16450217	          0.22910202	          0.31097560	          0.23453813	          0.28224184	          0.42133567	          0.45381521	          0.05000002	          0.05000006	          0.05000023	          0.05000006	          0.05000002	          0.05000012	          0.07715403	          0.06441072	          0.05725882	          0.05000001	          0.05000005	          0.25274380	          0.05000004	          0.05000005	          0.05000008	          0.20494648	          0.06513248	          0.26568032	          0.05000035	          0.05000073	          0.15390680	          0.36330721	          0.42462710	          0.30434560	          0.18319630	          0.05000048	          0.08176399	          0.20234975	          0.12510651	          0.13096354	          0.18557847	          0.05000007	          0.05000014	          0.50926548	          0.21114257	          0.09566649	          0.05000177	          0.07864123	          0.08528258	          0.07026766	          0.05000228	          0.07026510	          0.05927305	          0.06189888	          0.05000176	          0.05927353	          0.43200677	          0.34408034	          0.17307600	          0.39761313	          0.41605297	          0.24291964	          0.05753475	          0.05877774	          0.07113398	
          1.14612893	         -2.91627844	         -2.91196784	          7.01474430	          1.53385928	          0.90570665	         -0.00410745	        -17.62299413	         -2.58283287	          8.03291436	         29.12162731	          4.03208249	         -3.01594565	        -11.58748903	        -11.53852046	         -0.72784219	          5.80291543	         13.75601968	         -3.89889096	         25.40013256	         -0.23363000	         -3.16680010	          1.89393993	         -2.60354897	          9.25173292	        -13.46837288	         19.18888454	        -13.02526788	        -13.45164282	          6.18037677	         44.33908576	         16.22745836	         86.51662706	         86.51662706	          0.24211421	          0.07026548	          0.05000066	          0.26948455	          0.15872867	          0.09071061	          0.05000123	          0.05000014	          0.05000011	          0.05070123	          0.08287073	          0.19150126	          0.17290932	          0.18140804	          0.05001018	          0.05000662	          0.57050134	          0.09965333	          0.05000084	          0.05000179	          0.05000096	          0.05000070	          0.30130823	          0.64815589	          0.05000014	          0.05000056	          0.05000008	          0.27503849	          0.13876706	          0.13876708	          0.13876688	          0.19326038	          0.26232534	          0.19784605	          0.23808741	          0.35542047	          0.38281883	          0.05000001	          0.06605694	          0.09750733	          0.05000007	          0.05000001	          0.05000009	          0.07554451	          0.05433405	          0.05000003	          0.30183943	          0.29947901	          0.41734857	          0.45451216	          0.26204850	          0.17357852	          0.17288386	          0.08519496	          0.22411625	          0.05927744	          0.05000096	          0.12982907	          0.30647014	          0.35819688	          0.25673291	          0.21452827	          0.05000027	          0.06897435	          0.17069401	          0.22519101	          0.19084272	          0.21499229	          0.05927231	          0.05000052	          0.42959403	          0.17811070	          0.16079802	          0.05000006	          0.06633836	          0.07194072	          0.05927478	          0.05407196	          0.05927269	          0.05000015	          0.05221606	          0.05000049	          0.05000131	          0.52694698	          0.29992427	          0.14938997	          0.53174222	          0.46951236	          0.28290281	          0.08296824	          0.08330309	          0.06000551	
